<svg width="14" height="15" viewBox="0 0 14 15" fill="none" xmlns="http://www.w3.org/2000/svg">
<path d="M0.103784 12.6782C-0.256708 14.1091 0.331171 14.9188 1.72322 14.9188H12.2718C13.6638 14.9188 14.2573 14.1091 13.8967 12.6782L12.294 6.30027C12.0388 5.26873 11.3179 4.69194 10.3029 4.69194H3.69206C2.67714 4.69194 1.9617 5.26873 1.70104 6.30027L0.103784 12.6782ZM1.0577 12.7281L2.62168 6.61641C2.78806 5.98418 3.15965 5.67356 3.76971 5.67356H10.2308C10.8409 5.67356 11.2125 5.98418 11.3733 6.61641L12.9429 12.7281C13.1481 13.5268 12.8597 13.9372 12.1664 13.9372H1.83414C1.13535 13.9372 0.852497 13.5268 1.0577 12.7281ZM6.50942 5.3741H7.4911V3.49954H6.50942V5.3741ZM6.9975 3.98759C8.09006 3.98759 8.99959 3.08914 8.99959 2.00212C8.99959 0.904004 8.08454 0 6.9975 0C5.91046 0 5.00093 0.909548 5.00093 2.00212C5.00093 3.08914 5.91046 3.98759 6.9975 3.98759ZM6.9975 3.12796C6.38188 3.12796 5.86611 2.61772 5.86611 2.00212C5.86611 1.38096 6.37637 0.859637 6.9975 0.859637C7.61864 0.859637 8.13441 1.38096 8.13441 2.00212C8.13441 2.61218 7.61864 3.12796 6.9975 3.12796Z" fill="#EA812E"/>
</svg>
